{
  "accessors": [
    {
      "bufferView": 2,
      "componentType": 5126,
      "count": 25213,
      "max": [
        0.34833240509033203,
        0.18595066666603088,
        0.07085023820400238
      ],
      "min": [
        -0.51800674200057983,
        -0.037553600966930389,
        -0.18589521944522858
      ],
      "type": "VEC3"
    },
    {
      "bufferView": 2,
      "byteOffset": 302556,
      "componentType": 5126,
      "count": 25213,
      "max": [
        1,
        1,
        1
      ],
      "min": [
        -1,
        -1,
        -1
      ],
      "type": "VEC3"
    },
    {
      "bufferView": 3,
      "componentType": 5126,
      "count": 25213,
      "max": [
        1,
        1,
        1,
        1
      ],
      "min": [
        -1,
        -1,
        -1,
        -1
      ],
      "type": "VEC4"
    },
    {
      "bufferView": 1,
      "componentType": 5126,
      "count": 25213,
      "max": [
        0.99730974435806274,
        0.99571776390075684
      ],
      "min": [
        0.0026821515057235956,
        0.0026821459177881479
      ],
      "type": "VEC2"
    },
    {
      "bufferView": 1,
      "byteOffset": 201704,
      "componentType": 5126,
      "count": 25213,
      "max": [
        0.99730974435806274,
        0.99571776390075684
      ],
      "min": [
        0.0026821515057235956,
        0.0026821459177881479
      ],
      "type": "VEC2"
    },
    {
      "bufferView": 1,
      "byteOffset": 403408,
      "componentType": 5126,
      "count": 25213,
      "max": [
        0.99730974435806274,
        0.99571776390075684
      ],
      "min": [
        0.0026821515057235956,
        0.0026821459177881479
      ],
      "type": "VEC2"
    },
    {
      "bufferView": 0,
      "componentType": 5125,
      "count": 87516,
      "max": [
        25212
      ],
      "min": [
        0
      ],
      "type": "SCALAR"
    },
    {
      "bufferView": 2,
      "byteOffset": 605112,
      "componentType": 5126,
      "count": 928,
      "max": [
        0.067929528653621674,
        0.013276022858917713,
        0.068350888788700104
      ],
      "min": [
        0.011779546737670898,
        -0.016661856323480606,
        0.026915039867162704
      ],
      "type": "VEC3"
    },
    {
      "bufferView": 2,
      "byteOffset": 616248,
      "componentType": 5126,
      "count": 928,
      "max": [
        1,
        1,
        1
      ],
      "min": [
        -1,
        -1,
        -1
      ],
      "type": "VEC3"
    },
    {
      "bufferView": 3,
      "byteOffset": 403408,
      "componentType": 5126,
      "count": 928,
      "max": [
        1,
        1,
        1,
        1
      ],
      "min": [
        -1,
        -1,
        -1,
        1
      ],
      "type": "VEC4"
    },
    {
      "bufferView": 1,
      "byteOffset": 605112,
      "componentType": 5126,
      "count": 928,
      "max": [
        0.99509066343307495,
        0.99710202217102051
      ],
      "min": [
        0.0029039473738521338,
        0.0028969999402761459
      ],
      "type": "VEC2"
    },
    {
      "bufferView": 1,
      "byteOffset": 612536,
      "componentType": 5126,
      "count": 928,
      "max": [
        0.99509066343307495,
        0.99710202217102051
      ],
      "min": [
        0.0029039473738521338,
        0.0028969999402761459
      ],
      "type": "VEC2"
    },
    {
      "bufferView": 1,
      "byteOffset": 619960,
      "componentType": 5126,
      "count": 928,
      "max": [
        0.99509066343307495,
        0.99710202217102051
      ],
      "min": [
        0.0029039473738521338,
        0.0028969999402761459
      ],
      "type": "VEC2"
    },
    {
      "bufferView": 0,
      "byteOffset": 350064,
      "componentType": 5125,
      "count": 2748,
      "max": [
        927
      ],
      "min": [
        0
      ],
      "type": "SCALAR"
    }
  ],
  "asset": {
    "extras": {
      "author": "r4m (https://sketchfab.com/r4m)",
      "license": "CC-BY-4.0 (http://creativecommons.org/licenses/by/4.0/)",
      "source": "https://sketchfab.com/3d-models/hk-416-a7-free-download-a16768f0ffa24737a4fe324a411cfbd9",
      "title": "HK 416 A7 (free download)"
    },
    "generator": "Sketchfab-7.13.0",
    "version": "2.0"
  },
  "bufferViews": [
    {
      "buffer": 0,
      "byteLength": 361056,
      "byteOffset": 0,
      "name": "floatBufferViews",
      "target": 34963
    },
    {
      "buffer": 0,
      "byteLength": 627384,
      "byteOffset": 361056,
      "byteStride": 8,
      "name": "floatBufferViews",
      "target": 34962
    },
    {
      "buffer": 0,
      "byteLength": 627384,
      "byteOffset": 988440,
      "byteStride": 12,
      "name": "floatBufferViews",
      "target": 34962
    },
    {
      "buffer": 0,
      "byteLength": 418256,
      "byteOffset": 1615824,
      "byteStride": 16,
      "name": "floatBufferViews",
      "target": 34962
    }
  ],
  "buffers": [
    {
      "byteLength": 2034080,
      "uri": "scene.bin"
    }
  ],
  "images": [
    {
      "uri": "textures/material_baseColor.png"
    },
    {
      "uri": "textures/material_metallicRoughness.png"
    },
    {
      "uri": "textures/material_normal.png"
    },
    {
      "uri": "textures/Sights_baseColor.png"
    },
    {
      "uri": "textures/Sights_metallicRoughness.png"
    },
    {
      "uri": "textures/Sights_normal.png"
    }
  ],
  "materials": [
    {
      "doubleSided": true,
      "emissiveFactor": [
        0,
        0,
        0
      ],
      "name": "material",
      "normalTexture": {
        "index": 2,
        "scale": 1,
        "texCoord": 0
      },
      "pbrMetallicRoughness": {
        "baseColorFactor": [
          1,
          1,
          1,
          1
        ],
        "baseColorTexture": {
          "index": 0,
          "texCoord": 0
        },
        "metallicFactor": 1,
        "metallicRoughnessTexture": {
          "index": 1,
          "texCoord": 0
        },
        "roughnessFactor": 1
      }
    },
    {
      "doubleSided": true,
      "emissiveFactor": [
        0,
        0,
        0
      ],
      "name": "Sights",
      "normalTexture": {
        "index": 5,
        "scale": 1,
        "texCoord": 0
      },
      "pbrMetallicRoughness": {
        "baseColorFactor": [
          1,
          1,
          1,
          1
        ],
        "baseColorTexture": {
          "index": 3,
          "texCoord": 0
        },
        "metallicFactor": 1,
        "metallicRoughnessTexture": {
          "index": 4,
          "texCoord": 0
        },
        "roughnessFactor": 1
      }
    }
  ],
  "meshes": [
    {
      "name": "Upper_reciever_low_Low_0",
      "primitives": [
        {
          "attributes": {
            "NORMAL": 1,
            "POSITION": 0,
            "TANGENT": 2,
            "TEXCOORD_0": 3,
            "TEXCOORD_1": 4,
            "TEXCOORD_2": 5
          },
          "indices": 6,
          "material": 0,
          "mode": 4
        }
      ]
    },
    {
      "name": "Upper_reciever_low_Sights_0",
      "primitives": [
        {
          "attributes": {
            "NORMAL": 8,
            "POSITION": 7,
            "TANGENT": 9,
            "TEXCOORD_0": 10,
            "TEXCOORD_1": 11,
            "TEXCOORD_2": 12
          },
          "indices": 13,
          "material": 1,
          "mode": 4
        }
      ]
    }
  ],
  "nodes": [
    {
      "children": [
        1
      ],
      "name": "RootNode (gltf orientation matrix)",
      "rotation": [
        -0.70710678118654746,
        -0,
        -0,
        0.70710678118654757
      ]
    },
    {
      "children": [
        2
      ],
      "name": "RootNode (model correction matrix)"
    },
    {
      "children": [
        3
      ],
      "matrix": [
        1,
        0,
        0,
        0,
        0,
        0,
        1,
        0,
        0,
        -1,
        0,
        0,
        0,
        0,
        0,
        1
      ],
      "name": "Final.fbx"
    },
    {
      "children": [
        4
      ],
      "name": "RootNode"
    },
    {
      "children": [
        5,
        6
      ],
      "matrix": [
        100,
        0,
        0,
        0,
        0,
        -1.6292067939183141e-05,
        -99.999999999998678,
        0,
        0,
        99.999999999998678,
        -1.6292067939183141e-05,
        0,
        6.4948139190673828,
        18.283134460449219,
        3.2018661499932932e-07,
        1
      ],
      "name": "Upper_reciever_low"
    },
    {
      "mesh": 0,
      "name": "Upper_reciever_low_Low_0"
    },
    {
      "mesh": 1,
      "name": "Upper_reciever_low_Sights_0"
    }
  ],
  "samplers": [
    {
      "magFilter": 9729,
      "minFilter": 9987,
      "wrapS": 10497,
      "wrapT": 10497
    }
  ],
  "scene": 0,
  "scenes": [
    {
      "name": "OSG_Scene",
      "nodes": [
        0
      ]
    }
  ],
  "textures": [
    {
      "sampler": 0,
      "source": 0
    },
    {
      "sampler": 0,
      "source": 1
    },
    {
      "sampler": 0,
      "source": 2
    },
    {
      "sampler": 0,
      "source": 3
    },
    {
      "sampler": 0,
      "source": 4
    },
    {
      "sampler": 0,
      "source": 5
    }
  ]
}

